Patient4_TMGait_0pt6_01_left_32_GRF.mot
version=1
nRows=26
nColumns=19
inDegrees=no
endheader
time	F1x	F1y	F1z	M1x	M1y	M1z	F2x	F2y	F2z	M2x	M2y	M2z	EC1x	EC1y	EC1z	EC2x	EC2y	EC2z
38.88	-2.1736	14.8577	-15.3549	-1.4904	11.589	22.0595	-37.2233	727.0782	-51.8005	273.7266	64.5171	728.0304	-0.0592	0.0182	-0.0073	-0.0462	0.0165	0.9585
38.8928	-1.2856	10.5661	-10.4849	-1.1707	7.9996	15.3059	-33.5343	725.9185	-53.5372	273.0372	64.9139	724.3621	-0.0592	0.0182	-0.0073	-0.0462	0.0165	0.9585
38.9056	-0.60621	6.9942	-6.2931	-0.94291	4.8664	9.7113	-29.8433	725.888	-54.8002	272.7689	64.736	720.9119	-0.0592	0.0182	-0.0073	-0.0462	0.0165	0.9585
38.9184	-0.14551	4.3372	-3.0481	-0.802	2.412	5.5564	-26.3188	727.7834	-55.4548	273.2436	63.9135	718.5012	-0.0592	0.0182	-0.0073	-0.0462	0.0165	0.9585
38.9311	0.13872	2.5626	-0.78181	-0.73239	0.68353	2.7651	-22.9998	732.168	-55.5234	274.6989	62.4973	717.757	-0.0592	0.0182	-0.0073	-0.0462	0.0165	0.9585
38.9439	0.26249	1.5223	0.65105	-0.71125	-0.42683	1.117	-19.8493	739.152	-55.1331	277.1935	60.6173	718.8796	-0.0592	0.0182	-0.0073	-0.0462	0.0165	0.9585
38.9567	0.28956	0.99455	1.4313	-0.71007	-1.0487	0.27332	-16.7874	748.3102	-54.4202	280.5757	58.3981	721.5538	-0.0592	0.0182	-0.0073	-0.0462	0.0165	0.9585
38.9695	0.21684	0.7641	1.7654	-0.69869	-1.3495	-0.065386	-13.7231	758.7213	-53.5215	284.4942	55.9542	725.0035	-0.0592	0.0182	-0.0073	-0.0462	0.0165	0.9585
38.9823	0.091183	0.61263	1.8149	-0.64277	-1.4482	-0.21883	-10.5671	769.0492	-52.5279	288.4335	53.3515	728.0681	-0.0592	0.0182	-0.0073	-0.0462	0.0165	0.9585
38.9951	-0.09192	0.35237	1.7252	-0.50473	-1.4614	-0.42533	-7.2489	777.768	-51.52	291.8	50.6451	729.4339	-0.0592	0.0182	-0.0073	-0.0462	0.0165	0.9585
39.0079	-0.29835	-0.17891	1.5839	-0.24716	-1.4475	-0.90555	-3.6997	783.4951	-50.541	294.0521	47.8539	727.9207	-0.0592	0.0182	-0.0073	-0.0462	0.0165	0.9585
39.0206	-0.50811	-1.1	1.4589	0.16164	-1.4514	-1.8094	0.094339	785.2886	-49.6241	294.8138	45.0042	722.7852	-0.0592	0.0182	-0.0073	-0.0462	0.0165	0.9585
39.0334	-0.67254	-2.4692	1.3665	0.73558	-1.4672	-3.2193	4.0885	782.8088	-48.7993	293.9369	42.1441	713.8669	-0.0592	0.0182	-0.0073	-0.0462	0.0165	0.9585
39.0462	-0.72383	-4.2627	1.3151	1.4612	-1.4719	-5.1243	8.1334	776.4101	-48.1254	291.5296	39.3905	701.6591	-0.0592	0.0182	-0.0073	-0.0462	0.0165	0.9585
39.059	-0.58634	-6.293	1.2741	2.2662	-1.4007	-7.3163	12.0374	767.0439	-47.6854	287.9233	36.9	687.1742	-0.0592	0.0182	-0.0073	-0.0462	0.0165	0.9585
39.0718	-0.12884	-8.174	1.2073	3.0007	-1.1639	-9.3824	15.593	756.0712	-47.5646	283.605	34.8357	671.7705	-0.0592	0.0182	-0.0073	-0.0462	0.0165	0.9585
39.0846	0.77201	-9.2281	1.049	3.4025	-0.63968	-10.5721	18.6414	744.972	-47.8248	279.1122	33.3235	656.8615	-0.0592	0.0182	-0.0073	-0.0462	0.0165	0.9585
39.0974	2.2723	-8.4611	0.72855	3.0809	0.30908	-9.8109	21.1194	735.0275	-48.4661	274.9216	32.3976	643.614	-0.0592	0.0182	-0.0073	-0.0462	0.0165	0.9585
39.1101	4.4726	-4.4893	0.16195	1.496	1.8106	-5.5854	23.082	727.0762	-49.4223	271.3548	31.9876	632.7446	-0.0592	0.0182	-0.0073	-0.0462	0.0165	0.9585
39.1229	7.4108	4.3922	-0.72662	-2.0211	3.9515	3.9619	24.7187	721.3577	-50.5836	268.5233	31.9351	624.3723	-0.0592	0.0182	-0.0073	-0.0462	0.0165	0.9585
39.1357	10.924	20.0554	-1.9845	-8.2073	6.7104	20.9067	26.2544	717.515	-51.7909	266.3244	32.0198	618.0719	-0.0592	0.0182	-0.0073	-0.0462	0.0165	0.9585
39.1485	14.5776	44.2014	-3.6033	-17.7337	9.8939	47.1434	27.9088	714.6412	-52.8502	264.4585	31.9965	612.931	-0.0592	0.0182	-0.0073	-0.0462	0.0165	0.9585
39.1613	17.5258	77.7716	-5.4659	-30.9681	13.0297	83.7357	29.7768	711.4145	-53.5212	262.472	31.6244	607.7339	-0.0592	0.0182	-0.0073	-0.0462	0.0165	0.9585
39.1741	18.4134	120.1088	-7.3005	-47.6397	15.2772	130.0145	31.8382	706.1804	-53.5697	259.7912	30.7143	601.0146	-0.0592	0.0182	-0.0073	-0.0462	0.0165	0.9585
39.1869	15.6826	168.0716	-8.6117	-66.4984	15.4895	182.6257	33.9561	697.1471	-52.7887	255.7888	29.142	591.2343	-0.0592	0.0182	-0.0073	-0.0462	0.0165	0.9585
39.1996	8.9392	216.0272	-8.6658	-85.2976	12.718	235.4788	35.9569	682.7112	-51.0821	249.8997	26.8937	577.0387	-0.0592	0.0182	-0.0073	-0.0462	0.0165	0.9585
